PathFileType	4	(X/Y/Z)	C:/Users/opensim2020/Desktop/walking_exp_matlab/subject03_walking04_straight_04.trc	
DataRate	CameraRate	NumFrames	NumMarkers	Units	OrigDataRate	OrigDataStartFrame	OrigNumFrames	
100.00	100.00	7	51	mm	100.00	3245	293	
Frame#	Time	LFHD			RFHD			LBHD			RBHD			C7			T10			CLAV			STRN			RBAK			LSHO			LUPA			LELB			LFRM			LWRA			LWRB			LFIN			RSHO			RUPA			RELB			RFRM			RWRA			RWRB			RFIN			LASI			RASI			LPSI			RPSI			LTHI			LKNE			LTIB			LANK			LHEE			LTOE			RTHI			RKNE			RTIB			RANK			RHEE			RTOE			*39			*40			*41			*42			*43			*44			*45			*46			*47			*48			*49			*50			
		X1	Y1	Z1	X2	Y2	Z2	X3	Y3	Z3	X4	Y4	Z4	X5	Y5	Z5	X6	Y6	Z6	X7	Y7	Z7	X8	Y8	Z8	X9	Y9	Z9	X10	Y10	Z10	X11	Y11	Z11	X12	Y12	Z12	X13	Y13	Z13	X14	Y14	Z14	X15	Y15	Z15	X16	Y16	Z16	X17	Y17	Z17	X18	Y18	Z18	X19	Y19	Z19	X20	Y20	Z20	X21	Y21	Z21	X22	Y22	Z22	X23	Y23	Z23	X24	Y24	Z24	X25	Y25	Z25	X26	Y26	Z26	X27	Y27	Z27	X28	Y28	Z28	X29	Y29	Z29	X30	Y30	Z30	X31	Y31	Z31	X32	Y32	Z32	X33	Y33	Z33	X34	Y34	Z34	X35	Y35	Z35	X36	Y36	Z36	X37	Y37	Z37	X38	Y38	Z38	X39	Y39	Z39	X40	Y40	Z40	X41	Y41	Z41	X42	Y42	Z42	X43	Y43	Z43	X44	Y44	Z44	X45	Y45	Z45	X46	Y46	Z46	X47	Y47	Z47	X48	Y48	Z48	X49	Y49	Z49	X50	Y50	Z50	X51	Y51	Z51	

220	2.190	1703.50269	-526.01648	1619.85608	1571.39331	-505.69153	1624.52136	1717.41565	-397.87958	1577.90234	1586.98132	-382.96704	1582.56543	1656.56250	-359.51340	1421.39221	1653.84534	-317.04492	1107.99109	1650.05176	-478.42560	1340.95190	1652.17920	-517.60510	1175.45264	1556.38452	-300.27267	1249.18835	1808.10498	-441.68948	1378.32141	1876.36548	-411.80234	1180.71362	1887.51294	-400.62219	1057.91577	1890.18933	-401.10736	927.48523	1862.18005	-388.11636	806.07990	1915.99695	-373.47714	818.76398	1906.05420	-354.31775	733.69495	1493.88232	-431.15622	1369.49487	1418.21362	-458.75046	1152.22168	1404.10791	-496.72336	1047.66541	1406.31909	-559.69269	926.89990	1444.89258	-624.83319	853.95770	1404.61804	-595.36823	833.09888	1414.23267	-646.40857	780.32483	1768.54858	-492.55679	950.16522	1530.57153	-479.80731	936.34332	1726.59412	-328.02597	967.67731	1576.92786	-323.25876	970.41119	1811.86499	-473.57004	647.69336	1769.99780	-510.21478	474.34427	1770.85278	-489.27579	279.46982	1731.45569	-507.15573	69.76748	1691.70361	-471.15820	35.54901	1719.17456	-660.94507	39.31526	1491.96960	-395.86780	641.99780	1518.82532	-385.62842	461.74820	1517.36902	-244.38213	324.24615	1563.26868	-101.88247	163.41263	1618.75818	-53.20338	166.40515	1578.67078	-175.68163	38.62824	1665.39392	-438.66379	1683.74438																																	 
221	2.200	1703.19458	-536.19238	1620.44836	1571.51331	-515.27985	1624.85181	1718.26331	-407.97275	1579.31152	1587.87158	-392.39856	1583.65381	1657.92773	-368.86957	1422.08179	1655.67419	-327.04974	1108.67334	1651.11377	-488.11246	1342.02185	1653.41748	-527.43103	1176.53503	1557.48035	-310.30472	1249.87280	1808.94739	-451.81754	1379.79907	1877.88159	-423.39404	1182.36462	1888.78992	-413.20819	1059.41199	1890.94946	-415.19791	928.95172	1862.83838	-403.54529	807.70953	1916.56274	-389.18295	819.80853	1906.26074	-370.05695	734.56158	1495.20972	-440.27280	1370.68652	1419.83582	-466.77911	1153.10693	1405.88953	-503.45023	1048.13550	1408.06934	-565.15021	926.65222	1446.58826	-629.87329	853.05048	1406.33557	-599.74042	832.37201	1416.31042	-649.78662	778.41895	1770.32153	-502.05737	950.45184	1532.49890	-489.35660	937.64819	1728.02332	-338.18069	968.77112	1578.38257	-333.00555	971.54474	1812.90918	-478.72702	647.36060	1770.62671	-514.07819	473.81836	1770.74402	-491.54758	279.40433	1730.61182	-507.71570	69.93439	1691.25598	-471.35324	35.83980	1719.25842	-661.62927	38.74747	1492.71179	-410.54059	641.53107	1518.70508	-403.96594	460.92670	1517.63245	-260.46707	326.51056	1562.93213	-113.98951	169.59859	1619.00745	-66.11876	175.99161	1579.39502	-177.97675	40.18245	1665.70862	-449.20071	1684.68958																																	 
222	2.210	1703.07739	-546.37909	1620.83533	1571.48621	-524.78467	1624.90393	1719.09485	-418.07104	1580.42212	1588.75952	-401.79800	1584.44836	1659.12708	-378.09076	1422.53601	1657.69861	-336.87402	1109.13098	1652.09167	-497.61264	1342.61865	1654.57434	-537.27588	1177.29077	1558.88110	-319.77673	1250.39172	1809.87195	-461.98468	1381.00439	1879.42920	-434.94989	1183.72559	1890.13733	-425.76035	1060.53552	1891.82617	-429.40402	930.13416	1863.29346	-419.30057	808.86237	1917.16235	-405.08261	820.53528	1906.49475	-386.50073	735.05609	1496.46399	-449.48923	1371.33850	1421.30688	-474.61737	1153.67615	1407.62646	-510.27621	1048.25269	1409.78992	-570.70203	926.09570	1448.23889	-634.60748	851.65424	1407.97559	-604.24829	831.33514	1418.60815	-653.47028	776.29669	1771.87744	-511.59509	950.36914	1534.13440	-499.22226	938.90686	1729.51221	-348.09937	969.49939	1579.84058	-342.64575	972.14105	1813.89124	-483.90735	646.98401	1771.14490	-518.05255	473.10980	1770.72485	-493.95578	279.34167	1730.25159	-507.33292	70.93274	1690.73584	-471.72614	35.88851	1719.10767	-662.25568	38.19382	1493.53369	-425.01697	640.71478	1518.93176	-422.47931	460.06769	1517.85352	-277.33124	328.33505	1562.78882	-126.69156	175.75575	1618.45728	-78.95567	185.15477	1580.13953	-184.14020	43.89481	1665.89099	-459.58176	1685.42188																																	 
223	2.220	1702.92078	-556.58521	1621.09302	1571.40002	-534.27899	1624.84131	1719.78113	-428.19464	1581.26160	1589.58667	-411.19211	1584.83105	1660.37256	-387.60880	1422.98352	1659.62769	-346.54425	1109.31458	1653.03308	-506.99542	1343.07861	1655.69031	-547.01263	1177.82068	1560.41516	-329.12830	1250.42236	1810.74170	-472.00867	1381.71289	1881.04285	-446.50644	1184.66870	1891.65833	-438.30130	1061.32263	1892.87756	-443.81284	930.99585	1863.96057	-435.50055	809.76862	1917.85815	-421.21591	820.84833	1906.60034	-404.13403	735.72192	1497.68994	-458.29584	1371.69482	1422.64685	-482.35574	1153.73645	1409.13110	-516.89880	1047.90247	1411.31775	-576.10999	925.06952	1449.82312	-639.40424	849.92438	1409.54138	-608.68213	829.89502	1420.70886	-656.90533	773.73895	1773.22485	-521.20123	950.02441	1535.42017	-509.08276	939.54144	1730.93396	-357.75986	969.92419	1581.25281	-351.83438	972.32440	1814.60327	-489.24350	646.94818	1771.72266	-522.20984	472.48810	1770.78638	-496.68951	279.38937	1730.15527	-507.53796	70.79385	1690.40198	-472.00848	35.92385	1718.99780	-662.76227	37.75253	1494.20264	-439.37469	639.72522	1519.29968	-440.92831	459.20151	1517.88367	-294.62482	329.96863	1563.11597	-140.06897	181.77060	1618.55286	-92.27568	192.74767	1579.77258	-194.87646	49.08846	1665.99707	-469.88873	1685.92090																																	 
224	2.230	1702.63232	-566.71429	1621.38062	1571.20605	-543.60016	1624.69592	1720.45972	-438.20514	1582.06213	1590.38879	-420.46909	1585.18726	1661.80823	-396.60181	1423.07263	1661.35095	-356.14355	1109.28247	1653.88318	-516.18762	1343.41211	1656.62170	-556.36267	1178.08386	1562.23877	-337.98703	1250.30396	1811.67468	-482.05081	1382.20837	1882.65527	-457.98257	1185.13855	1893.27649	-450.81958	1061.72461	1894.06812	-458.20587	931.43982	1864.68848	-451.87982	810.25513	1918.61414	-437.50174	820.89746	1907.03943	-421.37149	734.90942	1498.71179	-466.98773	1371.70508	1423.98083	-490.08334	1153.43274	1410.65869	-523.68481	1047.15039	1412.89160	-581.62842	923.75751	1451.26709	-643.83502	847.56323	1411.00842	-613.00757	828.14551	1422.82239	-660.13470	770.81665	1774.39966	-530.69965	949.66229	1536.46106	-518.20233	939.68762	1732.24988	-367.04001	970.20282	1582.55469	-360.85257	972.02411	1815.98230	-495.06772	647.07715	1772.60706	-526.47284	472.10590	1771.36304	-499.02600	279.41263	1729.51660	-508.23758	70.27453	1690.36279	-471.93936	36.10426	1718.97754	-662.97302	37.47498	1494.96533	-453.33630	638.80750	1519.72217	-459.50381	458.60660	1518.14441	-312.28500	331.64929	1564.06775	-154.39171	187.60167	1619.59924	-106.44970	198.68930	1578.99329	-208.49297	54.60427	1666.00562	-479.96494	1686.30664																																	 
225	2.240	1702.30481	-576.89307	1621.72351	1571.01929	-552.98639	1624.63123	1721.05591	-448.35001	1582.92883	1591.11987	-429.75406	1585.56763	1663.09253	-406.00327	1423.32141	1663.02710	-365.46298	1109.34460	1654.70313	-525.22449	1343.77637	1657.39172	-565.56989	1178.28613	1564.39539	-346.55905	1250.07410	1812.58850	-491.86646	1382.36072	1884.15698	-469.53995	1185.24414	1894.98132	-463.35959	1061.76697	1895.26941	-472.69235	931.64508	1865.52429	-468.54370	810.59509	1919.37830	-453.86227	820.62994	1907.43579	-439.87308	734.47363	1499.56030	-475.46268	1371.46851	1425.33264	-497.55670	1152.68909	1412.00500	-530.45905	1046.13562	1414.25452	-586.91199	922.01093	1452.72400	-648.42059	845.14484	1412.41382	-617.31122	825.99622	1424.78735	-663.20697	767.58868	1775.28101	-540.05847	949.43683	1537.08997	-526.97845	939.48816	1733.42114	-376.11633	970.43005	1583.70740	-369.68051	971.35645	1817.31677	-501.49368	647.52545	1773.69495	-530.80627	472.02924	1772.12976	-501.26736	279.58859	1729.67651	-508.07895	70.43839	1690.40881	-471.97366	36.06032	1719.06287	-663.07806	37.26037	1495.56616	-467.07907	638.27490	1520.14380	-478.13690	458.41116	1519.11267	-330.23944	333.57407	1564.98718	-170.11186	192.48042	1620.88721	-121.97049	203.29555	1577.95325	-223.83334	59.68158																																				 
226	2.250	1701.89917	-587.05853	1622.07678	1570.71057	-562.39001	1624.57654	1721.60754	-458.52853	1583.91199	1591.79431	-439.14209	1586.04871	1664.22180	-414.91879	1423.51550	1664.35828	-374.58795	1109.58960	1655.34875	-534.07611	1344.10754	1657.99475	-574.55249	1178.64465	1566.80957	-354.66418	1250.18872	1813.52588	-501.53918	1382.28979	1885.56104	-481.19904	1185.01953	1896.64294	-476.00549	1061.57959	1896.44226	-487.35767	931.60077	1866.01501	-485.28809	810.57007	1920.16357	-470.49429	820.19647	1907.87439	-459.07306	733.90027	1500.14465	-483.75293	1371.05554	1426.61047	-504.88528	1151.70679	1413.31580	-537.17938	1044.81848	1415.69495	-592.18713	920.01379	1454.17651	-652.66339	842.25922	1413.80554	-621.29620	823.59241	1426.58643	-666.21368	764.27460	1776.08533	-549.49658	949.59387	1537.83203	-535.56726	939.24243	1734.34277	-384.95767	970.59277	1584.79663	-378.39206	970.56702	1818.29236	-508.30701	648.01678	1774.84631	-535.20380	472.19495	1772.94470	-503.60904	279.79086	1730.23145	-507.61929	71.06187	1690.63318	-471.88913	36.19526	1719.11877	-663.20618	37.08049	1496.13708	-480.70541	638.43103	1520.52319	-496.60956	458.71545	1520.30042	-348.48346	335.50024	1565.96960	-186.85780	196.41521	1622.33313	-138.56712	206.80525	1576.74670	-240.88028	63.96554	1665.80176	-500.26230	1687.29419																																	 
